GRFwalking.mot
version=1
nRows=21
nColumns=37
inDegrees=yes
endheader
time	ground_force_calcn_l_vx	ground_force_calcn_l_vy	ground_force_calcn_l_vz	ground_force_calcn_l_px	ground_force_calcn_l_py	ground_force_calcn_l_pz	ground_torque_calcn_l_vx	ground_torque_calcn_l_vy	ground_torque_calcn_l_vz	ground_force_calcn_r_vx	ground_force_calcn_r_vy	ground_force_calcn_r_vz	ground_force_calcn_r_px	ground_force_calcn_r_py	ground_force_calcn_r_pz	ground_torque_calcn_r_vx	ground_torque_calcn_r_vy	ground_torque_calcn_r_vz	ground_force_hand_l_vx	ground_force_hand_l_vy	ground_force_hand_l_vz	ground_force_hand_l_px	ground_force_hand_l_py	ground_force_hand_l_pz	ground_torque_hand_l_vx	ground_torque_hand_l_vy	ground_torque_hand_l_vz	ground_force_hand_r_vx	ground_force_hand_r_vy	ground_force_hand_r_vz	ground_force_hand_r_px	ground_force_hand_r_py	ground_force_hand_r_pz	ground_torque_hand_r_vx	ground_torque_hand_r_vy	ground_torque_hand_r_vz
0.5666545     -5.645668      688.0423     -1.694686      1.037203 -6.331741e-17    -0.3108476             0     0.8537279             0     -24.10112      90.89098      17.20284      1.116743 -6.765422e-17    -0.1525494             0      0.656033             0             0             0             0      1.271394     0.8010286    -0.4805157             0             0             0             0             0             0      1.108806     0.8350762   -0.01114645             0             0             0
0.5833211     -3.686219      659.4924     -4.968529      1.041229 -6.418477e-17    -0.3115566             0      1.269431             0     -25.59278      120.4723      16.99949      1.147655 -7.112366e-17    -0.1506573             0     0.9449979             0             0             0             0      1.282856     0.8007859    -0.4796716             0             0             0             0             0             0      1.115713     0.8331649   -0.01167607             0             0             0
0.5999877     -2.465055      647.9358     -5.321524      1.042478 -6.375109e-17    -0.3115575             0      1.167322             0     -25.75375      131.8064      15.24514      1.177388 -7.285839e-17    -0.1494845             0      1.109524             0             0             0             0      1.292941     0.8001886    -0.4786056             0             0             0             0             0             0      1.122269     0.8309161   -0.01212529             0             0             0
0.6166543     -3.244917      658.4343     -2.322107      1.040532 -6.375109e-17    -0.3105976             0     0.3409414             0     -23.50139       119.806      11.67078      1.202623 -7.285839e-17    -0.1489613             0      1.049794             0             0             0             0      1.301521     0.7994377    -0.4774938             0             0             0             0             0             0      1.128629     0.8285763    -0.0126902             0             0             0
0.6333209     -6.679668       687.142      3.233439      1.036491 -6.331741e-17    -0.3086872             0     -1.118597             0     -18.36843      88.32767      7.145985      1.229717 -7.459311e-17    -0.1498523             0     0.7867135             0             0             0             0      1.308688     0.7989789    -0.4764844             0             0             0             0             0             0      1.135112     0.8265713   -0.01351984             0             0             0
0.6499875     -11.98289      722.4476      10.04711      1.033134 -6.331741e-17    -0.3061828             0     -2.824454             0             0             0             0             0             0             0             0             0             0             0             0             0      1.314712     0.7992421    -0.4756348             0             0             0             0             0             0      1.142091     0.8252797   -0.01462801             0             0             0
0.6666541     -17.24404      750.7202      17.13183      1.033839 -6.331741e-17    -0.3036753             0     -4.286743             0             0             0             0             0             0             0             0             0             0             0             0             0      1.319889     0.8003147    -0.4749331             0             0             0             0             0             0      1.149867     0.8247653   -0.01591441             0             0             0
0.6833207     -20.62607      763.4509      24.27509      1.040224 -6.331741e-17    -0.3016564             0     -5.192481             0             0             0             0             0             0             0             0             0             0             0             0             0      1.324378     0.8018542     -0.474346             0             0             0             0             0             0      1.158574     0.8247187   -0.01724233             0             0             0
0.6999873     -21.35857      761.0653      31.96419      1.047973 -6.418477e-17    -0.3000658             0     -5.571979             0             0             0             0             0             0             0             0             0             0             0             0             0      1.328133     0.8033191    -0.4738337             0             0             0             0             0             0      1.168154     0.8246768   -0.01849217             0             0             0
0.7166539     -19.75708      751.1223       40.8496      1.054847 -6.418477e-17    -0.2989102             0     -5.729337             0             0             0             0             0             0             0             0             0             0             0             0             0      1.330997     0.8042913    -0.4733461             0             0             0             0             0             0      1.178417      0.824305   -0.01956967             0             0             0
0.7333205     -16.46516      742.7185      51.02429      1.060966 -6.418477e-17    -0.2985014             0     -5.992319             0             0             0             0             0             0             0             0             0             0             0             0             0       1.33286     0.8045979    -0.4728325             0             0             0             0             0             0      1.189143     0.8234627   -0.02039975             0             0             0
0.7499871     -11.69531       740.964      61.47654      1.066236 -6.591949e-17    -0.2984067             0     -6.452696             0             0             0             0             0             0             0             0             0             0             0             0             0      1.333776     0.8041885    -0.4722599             0             0             0             0             0             0      1.200124     0.8220386   -0.02093696             0             0             0
0.7666537     -5.070591      744.5362      70.04683       1.07004 -6.591949e-17    -0.2978997             0     -6.861889             0             0             0             0             0             0             0             0             0             0             0             0             0      1.333965      0.803003    -0.4716217             0             0             0             0             0             0      1.211212     0.8198285   -0.02119777             0             0             0
0.7833203      3.886473      747.1844      74.07708      1.071911 -6.591949e-17     -0.296955             0     -6.757171             0             0             0             0             0             0             0             0             0             0             0             0             0      1.333707     0.8010397    -0.4709495             0             0             0             0             0             0      1.222302      0.816676    -0.0212753             0             0             0
0.7999869      15.03833       741.994      71.61316      1.072554 -6.591949e-17     -0.295882             0     -5.764649             0             0             0             0             0             0             0             0             0             0             0             0             0      1.333224     0.7985505    -0.4703265             0             0             0             0             0             0      1.233348     0.8127619    -0.0213002             0             0             0
0.8166535      27.26093       725.737      62.56673       1.07325 -6.591949e-17    -0.2949286             0     -3.896925             0             0             0             0             0             0             0             0             0             0             0             0             0      1.332586     0.7960907    -0.4698801             0             0             0             0             0             0      1.244373     0.8087175   -0.02136623             0             0             0
0.8333201      38.77701      700.4083      49.02318      1.075152 -6.591949e-17    -0.2942079             0     -1.623081             0     -5.561933      77.14064      19.20558      1.341669 -8.326673e-17    -0.1859089             0       1.02014             0             0             0             0      1.331737     0.7942966    -0.4697434             0             0             0             0             0             0      1.255492     0.8053782   -0.02148766             0             0             0
0.8499867      48.05814      670.9345      34.32234      1.078766 -6.591949e-17    -0.2937827             0     0.3733375             0     -6.484082      120.1596      24.91934       1.34597 -8.326673e-17    -0.1814349             0      1.388824             0             0             0             0      1.330629     0.7935545    -0.4699934             0             0             0             0             0             0      1.266907     0.8033404   -0.02161416             0             0             0
0.8666533      54.67091      641.1375      21.45497      1.084197 -6.678685e-17    -0.2935906             0      1.582619             0     -7.068352      162.7609      26.18708      1.355227 -8.326673e-17     -0.179763             0      1.578781             0             0             0             0      1.329373     0.7938272    -0.4706023             0             0             0             0             0             0      1.278835     0.8026649   -0.02166853             0             0             0
0.8833199      59.41505      611.3946       11.8454      1.090792 -6.678685e-17    -0.2935212             0      1.914218             0     -8.488231      203.5294      22.55923      1.363414 -8.326673e-17    -0.1763246             0      1.573156             0             0             0             0      1.328233     0.7947458    -0.4714374             0             0             0             0             0             0       1.29139     0.8029325   -0.02156682             0             0             0
0.8999865      63.66213      579.4716      5.187191      1.095561 -6.678685e-17    -0.2937951             0      1.649372             0     -12.06738      244.0677      15.18229      1.370825 -8.326673e-17    -0.1733565             0      1.434004             0             0             0             0      1.327465     0.7958664    -0.4723113             0             0             0             0             0             0      1.304483     0.8035671   -0.02121406             0             0             0
